<svg width="224" height="224" viewBox="0 0 224 224" fill="none" xmlns="http://www.w3.org/2000/svg">
<rect width="224" height="224" rx="50" fill="white"/>
<path d="M34.1775 92.2671C42.7448 88.2743 52.9269 91.983 56.9199 100.55L82.789 156.054C86.782 164.621 83.0742 174.804 74.5071 178.797C65.9397 182.79 55.7568 179.082 51.7638 170.514L25.8947 115.01C21.9016 106.443 25.6101 96.2601 34.1775 92.2671Z" fill="black" stroke="black"/>
<path d="M59.624 178.736C51.1534 174.542 47.6867 164.275 51.8806 155.804L85.3068 88.2908C89.5007 79.8202 99.767 76.3534 108.238 80.5471C116.709 84.741 120.176 95.0076 115.982 103.478L82.5563 170.992C78.3623 179.463 68.0949 182.93 59.624 178.736Z" fill="black" stroke="black"/>
<path d="M93.1411 80.4214C84.6705 84.6155 81.2038 94.8825 85.3977 103.353L117.639 168.474C121.833 176.945 132.1 180.412 140.571 176.219C149.042 172.025 152.509 161.757 148.315 153.286L116.073 88.1657C111.879 79.6948 101.612 76.2275 93.1411 80.4214Z" fill="black" stroke="black"/>
<path d="M190.485 45.264C198.956 49.4581 202.423 59.7251 198.229 68.1958L148.543 168.551C144.349 177.021 134.082 180.488 125.612 176.295C117.141 172.101 113.673 161.834 117.867 153.363L167.553 53.0082L167.755 52.6143C172.068 44.4305 182.147 41.1356 190.485 45.264Z" fill="black" stroke="black"/>
</svg>
