<svg width="1457" height="251" viewBox="0 0 1457 251" fill="none" xmlns="http://www.w3.org/2000/svg">
<path d="M24.7465 85.1421C38.0468 78.9432 53.8546 84.6995 60.0537 97.9997L99.8086 183.297C106.007 196.597 100.25 212.404 86.9497 218.603C73.6495 224.802 57.8425 219.045 51.6435 205.745L11.8885 120.448C5.6898 107.148 11.4465 91.3411 24.7465 85.1421Z" fill="white" stroke="white"/>
<path d="M63.8473 218.507C50.6969 211.996 45.3138 196.058 51.8244 182.907L103.192 79.1557C109.703 66.0053 125.643 60.6225 138.793 67.1333C151.943 73.6442 157.325 89.5834 150.815 102.734L99.4469 206.485C92.936 219.636 76.9976 225.018 63.8473 218.507Z" fill="white" stroke="white"/>
<path d="M115.355 66.9404C102.205 73.4513 96.8216 89.3901 103.332 102.54L152.88 202.616C159.391 215.766 175.33 221.149 188.481 214.638C201.631 208.127 207.013 192.189 200.503 179.038L150.955 78.9624C144.444 65.8122 128.505 60.4298 115.355 66.9404Z" fill="white" stroke="white"/>
<path d="M265.186 12.9119C278.336 19.4227 283.719 35.3615 277.209 48.5119L200.853 202.733C194.342 215.883 178.403 221.265 165.253 214.754C152.102 208.243 146.72 192.305 153.231 179.155L229.586 24.9338C236.097 11.7836 252.035 6.40126 265.186 12.9119Z" fill="white" stroke="white"/>
<path d="M1381.78 47.5001V143.503L1410.77 99.3605L1410.92 99.1349H1453.26L1452.69 99.9279L1417.36 148.819L1454.85 204.562L1455.37 205.341H1411.12L1410.97 205.099L1381.78 156.571V205.341H1343.35V47.5001H1381.78Z" fill="white" stroke="white"/>
<path d="M1284.47 96.9836C1292.14 96.9837 1298.97 98.7948 1304.94 102.428C1311.04 105.913 1315.83 110.636 1319.32 116.594C1322.81 122.558 1324.55 129.317 1324.55 136.856V205.341H1286.12V145.461C1286.12 140.688 1284.72 137.031 1281.97 134.421L1281.96 134.412C1279.2 131.647 1275.67 130.255 1271.34 130.255C1268.4 130.255 1265.76 130.885 1263.4 132.134L1263.4 132.133C1261.19 133.379 1259.47 135.104 1258.22 137.316C1256.98 139.519 1256.35 142.227 1256.35 145.461V205.341H1217.92V99.135H1256.35V105.603C1258.06 104.339 1259.9 103.205 1261.86 102.203L1262.49 101.882C1269.01 98.6129 1276.34 96.9836 1284.47 96.9836Z" fill="white" stroke="white"/>
<path d="M1132.67 96.9836C1139.33 96.9836 1145.42 98.2133 1150.94 100.68C1154.04 101.984 1156.82 103.611 1159.28 105.56V99.135H1197.07V205.341H1159.28V198.81C1156.82 200.747 1154.04 202.407 1150.95 203.791C1145.43 206.261 1139.33 207.492 1132.67 207.492C1122.83 207.492 1114.06 205.105 1106.38 200.318C1098.7 195.536 1092.68 189.014 1088.34 180.763L1088.34 180.759C1084 172.361 1081.83 162.887 1081.83 152.346C1081.83 141.663 1083.99 132.116 1088.34 123.717C1092.55 115.583 1098.32 109.205 1105.67 104.596L1106.38 104.156C1114.07 99.3709 1122.84 96.9837 1132.67 96.9836ZM1140.85 131.331C1136.91 131.331 1133.42 132.244 1130.34 134.059C1127.41 135.876 1125.04 138.392 1123.21 141.619C1121.54 144.691 1120.69 148.191 1120.69 152.13C1120.69 156.215 1121.54 159.861 1123.21 163.078L1123.54 163.648C1125.19 166.456 1127.46 168.712 1130.34 170.418C1133.42 172.235 1136.84 173.145 1140.63 173.145C1146.68 173.145 1151.49 171.181 1155.11 167.281L1155.12 167.274C1158.89 163.363 1160.79 158.33 1160.79 152.13C1160.79 148.041 1159.94 144.469 1158.27 141.398C1156.59 138.323 1154.22 135.878 1151.14 134.059L1151.13 134.053C1148.2 132.244 1144.78 131.331 1140.85 131.331Z" fill="white" stroke="white"/>
<path d="M1020.71 51.8031C1030.24 51.8031 1038.5 53.6078 1045.47 57.2367L1046.13 57.5795C1052.91 61.1639 1058.14 65.914 1061.8 71.8334C1065.58 77.9423 1067.47 84.8478 1067.47 92.5355C1067.47 102.526 1064.12 110.904 1057.43 117.637L1056.77 118.284C1054.72 120.251 1052.39 121.993 1049.79 123.516C1053.76 125.608 1057.24 128.141 1060.22 131.12C1068.07 138.822 1071.99 148.564 1071.99 160.306C1071.99 169 1069.81 176.768 1065.45 183.596L1065.45 183.6C1061.09 190.281 1054.93 195.571 1046.97 199.479C1039.14 203.393 1029.88 205.341 1019.21 205.341H950.936V51.8031H1020.71ZM989.801 175.727H1013.83C1019.76 175.727 1024.35 174.105 1027.68 170.917C1031.16 167.579 1032.91 163.268 1032.91 157.94C1032.91 154.43 1032.13 151.363 1030.61 148.724L1030.6 148.714C1029.08 145.939 1026.86 143.86 1023.94 142.47L1023.93 142.464L1023.91 142.456C1021.13 140.928 1017.78 140.152 1013.83 140.152H989.801V175.727ZM989.801 111.399H1011.46C1016.4 111.399 1020.37 110.201 1023.42 107.847C1026.56 105.385 1028.17 101.606 1028.17 96.4076C1028.17 91.2083 1026.56 87.509 1023.43 85.1918L1023.42 85.1849L1023.41 85.1771C1020.36 82.6842 1016.39 81.4174 1011.46 81.4174H989.801V111.399Z" fill="white" stroke="white"/>
<path d="M840.36 96.5533C851.048 96.5533 860.53 98.8646 868.789 103.502H868.788C877.181 107.989 883.7 114.29 888.335 122.398C893.12 130.373 895.507 139.5 895.507 149.764C895.507 151.933 895.362 154.172 895.073 156.481C894.927 158.668 894.491 161.203 893.771 164.085L893.677 164.462L893.288 164.464L820.182 164.802C820.494 165.703 820.843 166.571 821.232 167.404L821.611 168.156C823.553 171.86 826.229 174.687 829.638 176.654C833.273 178.751 837.772 179.815 843.157 179.815C848.266 179.815 852.712 178.963 856.508 177.276L856.514 177.273C860.455 175.584 863.982 172.977 867.093 169.442L867.446 169.042L867.822 169.419L887.401 188.997L887.732 189.329L887.422 189.68C882.206 195.621 875.831 200.111 868.303 203.151L868.304 203.152C860.919 206.193 852.534 207.708 843.157 207.708C831.33 207.708 820.851 205.4 811.735 200.769L811.729 200.766C802.617 195.993 795.449 189.407 790.237 181.008C785.019 172.603 782.416 162.971 782.416 152.13C782.416 141.436 784.946 131.95 790.018 123.688C795.084 115.293 801.962 108.705 810.644 103.93C819.473 99.0094 829.382 96.5534 840.36 96.5533ZM840.79 124.447C836.141 124.447 832.154 125.573 828.805 127.805C825.449 130.043 822.853 133.192 821.023 137.275C820.683 138.032 820.376 138.819 820.099 139.635L859.751 139.306C859.427 138.11 859.051 136.999 858.617 135.974L858.615 135.968C857.068 132.174 854.832 129.319 851.915 127.375C849.005 125.434 845.308 124.447 840.79 124.447Z" fill="white" stroke="white"/>
<path d="M789.304 99.1353L788.766 99.9185L773.937 121.51H774.006L773.392 122.302L773.311 122.421L773.297 122.426L733.582 173.791H770.173L770.322 174.002L791.837 204.553L792.391 205.341H679.486V182.966H678.925L679.486 182.286V182.107L679.691 182.038L722.307 130.42L680.009 130.041L679.259 130.034L679.553 129.343L692.347 99.439L692.477 99.1353H789.304Z" fill="white" stroke="white"/>
<path d="M604.293 99.1353L604.399 99.4927L621.919 158.331L639.586 99.4917L639.693 99.1353H680.827L680.545 99.8247L637.301 205.246L619.229 249.565L619.102 249.876H580.339L580.66 249.169L603.275 199.414L584.523 152.532L573.987 126.191L568.141 112.836L568.054 112.638L568.139 112.439L570.444 107.06L573.514 99.4487L573.64 99.1353H604.293Z" fill="white" stroke="white"/>
<path d="M586.196 16.8574L585.978 17.5156L523.523 204.999L523.409 205.341H491.694L491.589 204.982L465.415 115.831L439.407 204.981L439.303 205.341H407.41L407.276 205.05L369.903 123.602L369.578 122.894H411.402L411.536 123.186L420.602 143.04L439.021 52.2041L439.103 51.8027H481.255L481.36 52.1621L507.166 140.225L543.531 17.2158L543.637 16.8574H586.196Z" fill="white" stroke="white"/>
</svg>
