<svg width="1457" height="251" viewBox="0 0 1457 251" fill="none" xmlns="http://www.w3.org/2000/svg">
<path d="M24.7465 85.5952C38.0468 79.3963 53.8546 85.1527 60.0537 98.4528L99.8086 183.75C106.007 197.05 100.25 212.857 86.9497 219.056C73.6495 225.255 57.8425 219.499 51.6435 206.198L11.8885 120.901C5.6898 107.601 11.4465 91.7943 24.7465 85.5952Z" fill="black" stroke="black"/>
<path d="M63.8473 218.96C50.6969 212.45 45.3138 196.511 51.8244 183.36L103.192 79.6089C109.703 66.4584 125.643 61.0756 138.793 67.5864C151.943 74.0974 157.325 90.0365 150.815 103.187L99.4469 206.938C92.936 220.089 76.9976 225.471 63.8473 218.96Z" fill="black" stroke="black"/>
<path d="M115.355 67.3936C102.205 73.9044 96.8216 89.8432 103.332 102.994L152.88 203.069C159.391 216.22 175.33 221.602 188.481 215.091C201.631 208.58 207.013 192.642 200.503 179.491L150.955 79.4155C144.444 66.2653 128.505 60.883 115.355 67.3936Z" fill="black" stroke="black"/>
<path d="M265.186 13.365C278.336 19.8758 283.719 35.8146 277.209 48.965L200.853 203.186C194.342 216.336 178.403 221.718 165.253 215.207C152.102 208.697 146.72 192.758 153.231 179.608L229.586 25.387C236.097 12.2367 252.035 6.85438 265.186 13.365Z" fill="black" stroke="black"/>
<path d="M1381.78 47.9534V143.956L1410.77 99.8137L1410.92 99.5881H1453.26L1452.69 100.381L1417.36 149.273L1454.85 205.015L1455.37 205.794H1411.12L1410.97 205.552L1381.78 157.025V205.794H1343.35V47.9534H1381.78Z" fill="black" stroke="black"/>
<path d="M1284.47 97.4368C1292.14 97.4368 1298.97 99.2479 1304.94 102.881C1311.04 106.366 1315.83 111.09 1319.32 117.047C1322.81 123.012 1324.55 129.77 1324.55 137.309V205.794H1286.12V145.914C1286.12 141.141 1284.72 137.484 1281.97 134.874L1281.96 134.865C1279.2 132.1 1275.67 130.708 1271.34 130.708C1268.4 130.708 1265.76 131.338 1263.4 132.587L1263.4 132.586C1261.19 133.832 1259.47 135.558 1258.22 137.769C1256.98 139.972 1256.35 142.68 1256.35 145.914V205.794H1217.92V99.5881H1256.35V106.056C1258.06 104.792 1259.9 103.658 1261.86 102.656L1262.49 102.335C1269.01 99.066 1276.34 97.4368 1284.47 97.4368Z" fill="black" stroke="black"/>
<path d="M1132.67 97.4368C1139.33 97.4368 1145.42 98.6664 1150.94 101.133C1154.04 102.437 1156.82 104.064 1159.28 106.013V99.5881H1197.07V205.794H1159.28V199.263C1156.82 201.2 1154.04 202.86 1150.95 204.244C1145.43 206.714 1139.33 207.946 1132.67 207.946C1122.83 207.946 1114.06 205.558 1106.38 200.771C1098.7 195.989 1092.68 189.467 1088.34 181.216L1088.34 181.212C1084 172.814 1081.83 163.34 1081.83 152.799C1081.83 142.116 1083.99 132.569 1088.34 124.17C1092.55 116.036 1098.32 109.658 1105.67 105.049L1106.38 104.609C1114.07 99.8241 1122.84 97.4368 1132.67 97.4368ZM1140.85 131.784C1136.91 131.784 1133.42 132.697 1130.34 134.512C1127.41 136.329 1125.04 138.845 1123.21 142.073C1121.54 145.145 1120.69 148.644 1120.69 152.583C1120.69 156.668 1121.54 160.314 1123.21 163.531L1123.54 164.101C1125.19 166.91 1127.46 169.165 1130.34 170.871C1133.42 172.688 1136.84 173.598 1140.63 173.598C1146.68 173.598 1151.49 171.634 1155.11 167.734L1155.12 167.727C1158.89 163.816 1160.79 158.783 1160.79 152.583C1160.79 148.494 1159.94 144.922 1158.27 141.851C1156.59 138.776 1154.22 136.332 1151.14 134.512L1151.13 134.506C1148.2 132.697 1144.78 131.784 1140.85 131.784Z" fill="black" stroke="black"/>
<path d="M1020.71 52.2563C1030.24 52.2563 1038.5 54.0611 1045.47 57.6899L1046.13 58.0327C1052.91 61.6171 1058.14 66.3672 1061.8 72.2866C1065.58 78.3955 1067.47 85.301 1067.47 92.9888C1067.47 102.979 1064.12 111.358 1057.43 118.09L1056.77 118.737C1054.72 120.705 1052.39 122.446 1049.79 123.969C1053.76 126.062 1057.24 128.595 1060.22 131.573C1068.07 139.276 1071.99 149.018 1071.99 160.759C1071.99 169.453 1069.81 177.222 1065.45 184.049L1065.45 184.053C1061.09 190.734 1054.93 196.025 1046.97 199.932C1039.14 203.846 1029.88 205.794 1019.21 205.794H950.936V52.2563H1020.71ZM989.801 176.18H1013.83C1019.76 176.18 1024.35 174.558 1027.68 171.371C1031.16 168.032 1032.91 163.722 1032.91 158.393C1032.91 154.883 1032.13 151.816 1030.61 149.177L1030.6 149.167C1029.08 146.393 1026.86 144.314 1023.94 142.923L1023.93 142.917L1023.91 142.91C1021.13 141.381 1017.78 140.605 1013.83 140.605H989.801V176.18ZM989.801 111.852H1011.46C1016.4 111.852 1020.37 110.654 1023.42 108.3C1026.56 105.838 1028.17 102.059 1028.17 96.8608C1028.17 91.6615 1026.56 87.9622 1023.43 85.645L1023.42 85.6382L1023.41 85.6304C1020.36 83.1374 1016.39 81.8706 1011.46 81.8706H989.801V111.852Z" fill="black" stroke="black"/>
<path d="M840.36 97.0066C851.048 97.0066 860.53 99.3178 868.789 103.955H868.788C877.181 108.442 883.7 114.743 888.335 122.851C893.12 130.826 895.507 139.953 895.507 150.218C895.507 152.387 895.362 154.626 895.073 156.934C894.927 159.121 894.491 161.657 893.771 164.538L893.677 164.915L893.288 164.917L820.182 165.256C820.494 166.156 820.843 167.024 821.232 167.857L821.611 168.609C823.553 172.314 826.229 175.141 829.638 177.107C833.273 179.205 837.772 180.268 843.157 180.268C848.266 180.268 852.712 179.416 856.508 177.729L856.514 177.726C860.455 176.037 863.982 173.43 867.093 169.895L867.446 169.495L867.822 169.872L887.401 189.45L887.732 189.782L887.422 190.134C882.206 196.074 875.831 200.564 868.303 203.604L868.304 203.605C860.919 206.646 852.534 208.161 843.157 208.161C831.33 208.161 820.851 205.853 811.735 201.222L811.729 201.219C802.617 196.447 795.449 189.86 790.237 181.462C785.019 173.056 782.416 163.425 782.416 152.584C782.416 141.889 784.946 132.403 790.018 124.141C795.084 115.746 801.962 109.159 810.644 104.384C819.473 99.4627 829.382 97.0067 840.36 97.0066ZM840.79 124.9C836.141 124.9 832.154 126.026 828.805 128.259C825.449 130.496 822.853 133.646 821.023 137.728C820.683 138.485 820.376 139.272 820.099 140.089L859.751 139.76C859.427 138.563 859.051 137.452 858.617 136.427L858.615 136.422C857.068 132.627 854.832 129.772 851.915 127.828C849.005 125.888 845.308 124.9 840.79 124.9Z" fill="black" stroke="black"/>
<path d="M789.304 99.5884L788.766 100.372L773.937 121.963H774.006L773.392 122.755L773.311 122.875L773.297 122.879L733.582 174.244H770.173L770.322 174.456L791.837 205.006L792.391 205.794H679.486V183.419H678.925L679.486 182.739V182.56L679.691 182.491L722.307 130.874L680.009 130.494L679.259 130.487L679.553 129.796L692.347 99.8921L692.477 99.5884H789.304Z" fill="black" stroke="black"/>
<path d="M604.293 99.5884L604.399 99.9458L621.919 158.784L639.586 99.9448L639.693 99.5884H680.827L680.545 100.278L637.301 205.699L619.229 250.018L619.102 250.33H580.339L580.66 249.623L603.275 199.867L584.523 152.985L573.987 126.644L568.141 113.29L568.054 113.091L568.139 112.892L570.444 107.513L573.514 99.9019L573.64 99.5884H604.293Z" fill="black" stroke="black"/>
<path d="M586.196 17.3105L585.978 17.9688L523.523 205.452L523.409 205.794H491.694L491.589 205.436L465.415 116.284L439.407 205.435L439.303 205.794H407.41L407.276 205.503L369.903 124.055L369.578 123.347H411.402L411.536 123.639L420.602 143.493L439.021 52.6572L439.103 52.2559H481.255L481.36 52.6152L507.166 140.678L543.531 17.6689L543.637 17.3105H586.196Z" fill="black" stroke="black"/>
</svg>
