<svg width="1455" height="249" viewBox="0 0 1455 249" fill="none" xmlns="http://www.w3.org/2000/svg">
<path d="M24.7465 84.689C38.0468 78.49 53.8546 84.2464 60.0537 97.5466L99.8086 182.844C106.007 196.144 100.25 211.951 86.9497 218.15C73.6495 224.349 57.8425 218.592 51.6435 205.292L11.8885 119.995C5.6898 106.695 11.4465 90.888 24.7465 84.689Z" fill="#26FF59" stroke="#26FF59"/>
<path d="M63.8473 218.054C50.6969 211.543 45.3138 195.605 51.8244 182.454L103.192 78.7026C109.703 65.5521 125.643 60.1693 138.793 66.6802C151.943 73.1911 157.325 89.1303 150.815 102.281L99.4469 206.032C92.936 219.182 76.9976 224.565 63.8473 218.054Z" fill="#26FF59" stroke="#26FF59"/>
<path d="M115.355 66.4873C102.205 72.9981 96.8216 88.9369 103.332 102.087L152.88 202.163C159.391 215.313 175.33 220.695 188.481 214.185C201.631 207.674 207.013 191.735 200.503 178.585L150.955 78.5093C144.444 65.3591 128.505 59.9767 115.355 66.4873Z" fill="#26FF59" stroke="#26FF59"/>
<path d="M265.186 12.4588C278.336 18.9696 283.719 34.9084 277.209 48.0588L200.853 202.28C194.342 215.43 178.403 220.812 165.253 214.301C152.102 207.79 146.72 191.852 153.231 178.702L229.586 24.4807C236.097 11.3305 252.035 5.94813 265.186 12.4588Z" fill="#26FF59" stroke="#26FF59"/>
<path d="M1411.4 204.388L1378.27 149.311L1411.19 99.1819H1452.28L1411.4 155.765L1412.48 141.996L1454.43 204.388H1411.4ZM1343.85 204.388V47.547H1381.28V204.388H1343.85Z" fill="#26FF59"/>
<path d="M1286.62 204.388V145.008C1286.62 140.131 1285.18 136.33 1282.31 133.605C1279.45 130.737 1275.79 129.302 1271.34 129.302C1268.33 129.302 1265.6 129.948 1263.17 131.239C1260.87 132.53 1259.08 134.322 1257.79 136.617C1256.5 138.912 1255.85 141.709 1255.85 145.008L1241.22 138.123C1241.22 129.661 1243.09 122.418 1246.82 116.394C1250.54 110.226 1255.64 105.493 1262.09 102.194C1268.69 98.7517 1276.15 97.0305 1284.47 97.0305C1292.07 97.0305 1298.81 98.8234 1304.69 102.409C1310.71 105.851 1315.45 110.513 1318.89 116.394C1322.33 122.274 1324.05 128.944 1324.05 136.402V204.388H1286.62ZM1218.42 204.388V99.182H1255.85V204.388H1218.42Z" fill="#26FF59"/>
<path d="M1132.67 206.54C1122.92 206.54 1114.24 204.173 1106.64 199.44C1099.04 194.707 1093.09 188.252 1088.78 180.077C1084.48 171.758 1082.33 162.363 1082.33 151.893C1082.33 141.279 1084.48 131.812 1088.78 123.493C1093.09 115.174 1099.04 108.72 1106.64 104.13C1114.24 99.3971 1122.92 97.0305 1132.67 97.0305C1139.27 97.0305 1145.29 98.2497 1150.74 100.688C1156.19 102.983 1160.64 106.282 1164.08 110.585C1167.67 114.888 1169.82 119.764 1170.54 125.215V178.14C1169.82 183.734 1167.67 188.682 1164.08 192.985C1160.64 197.145 1156.19 200.444 1150.74 202.882C1145.29 205.32 1139.27 206.54 1132.67 206.54ZM1140.63 173.192C1146.8 173.192 1151.75 171.184 1155.48 167.168C1159.35 163.152 1161.29 157.988 1161.29 151.677C1161.29 147.518 1160.43 143.86 1158.7 140.705C1156.98 137.55 1154.55 135.04 1151.39 133.175C1148.38 131.31 1144.86 130.378 1140.85 130.378C1136.83 130.378 1133.25 131.31 1130.09 133.175C1127.08 135.04 1124.64 137.621 1122.78 140.92C1121.05 144.076 1120.19 147.661 1120.19 151.677C1120.19 155.837 1121.05 159.566 1122.78 162.865C1124.5 166.02 1126.93 168.53 1130.09 170.395C1133.25 172.26 1136.76 173.192 1140.63 173.192ZM1159.78 204.388V176.204L1165.16 150.387L1159.78 124.999V99.182H1196.57V204.388H1159.78Z" fill="#26FF59"/>
<path d="M981.986 204.388V175.774H1013.83C1019.85 175.774 1024.58 174.124 1028.03 170.825C1031.61 167.383 1033.41 162.937 1033.41 157.486C1033.41 153.901 1032.62 150.745 1031.04 148.02C1029.46 145.151 1027.17 143 1024.15 141.566C1021.29 139.988 1017.84 139.199 1013.83 139.199H981.986V111.445H1011.46C1016.48 111.445 1020.57 110.226 1023.72 107.788C1027.02 105.206 1028.67 101.262 1028.67 95.9548C1028.67 90.6479 1027.02 86.7753 1023.72 84.3369C1020.57 81.7552 1016.48 80.4643 1011.46 80.4643H981.986V51.85H1020.71C1030.18 51.85 1038.35 53.6429 1045.24 57.2286C1052.27 60.8144 1057.65 65.6193 1061.37 71.6434C1065.1 77.6674 1066.97 84.4804 1066.97 92.0822C1066.97 102.266 1063.45 110.728 1056.43 117.469C1049.54 124.067 1039.5 128.155 1026.31 129.733V116.824C1040.94 118.545 1052.12 123.278 1059.87 131.023C1067.61 138.625 1071.49 148.235 1071.49 159.853C1071.49 168.459 1069.34 176.132 1065.03 182.874C1060.73 189.471 1054.63 194.707 1046.74 198.579C1039 202.452 1029.82 204.388 1019.21 204.388H981.986ZM951.436 204.388V51.85H989.301V204.388H951.436Z" fill="#26FF59"/>
<path d="M843.157 206.755C831.396 206.755 820.997 204.46 811.961 199.87C802.925 195.137 795.825 188.611 790.662 180.292C785.498 171.973 782.916 162.435 782.916 151.677C782.916 141.064 785.426 131.669 790.446 123.493C795.466 115.174 802.279 108.648 810.885 103.915C819.634 99.0385 829.459 96.6002 840.36 96.6002C850.974 96.6002 860.369 98.8951 868.544 103.485C876.863 107.931 883.317 114.17 887.907 122.203C892.64 130.091 895.007 139.127 895.007 149.311C895.007 151.462 894.864 153.685 894.577 155.98C894.433 158.132 894.003 160.642 893.286 163.51L800.558 163.941V139.844L878.441 139.199L861.66 149.741C861.516 143.861 860.655 139.056 859.078 135.326C857.5 131.454 855.205 128.513 852.193 126.505C849.181 124.497 845.38 123.493 840.79 123.493C836.057 123.493 831.969 124.641 828.527 126.936C825.085 129.231 822.431 132.458 820.567 136.617C818.702 140.777 817.77 145.797 817.77 151.677C817.77 157.702 818.774 162.865 820.782 167.168C822.79 171.327 825.659 174.483 829.388 176.634C833.117 178.786 837.707 179.861 843.157 179.861C848.32 179.861 852.839 179.001 856.711 177.28C860.727 175.559 864.313 172.905 867.468 169.319L887.047 188.898C881.883 194.778 875.572 199.225 868.114 202.237C860.799 205.249 852.48 206.755 843.157 206.755Z" fill="#26FF59"/>
<path d="M679.986 182.013L729.9 121.557H772.987L726.242 182.013H679.986ZM679.986 204.388V182.013L704.297 173.837H769.913L791.428 204.388H679.986ZM680.013 129.087L692.807 99.182H788.354L772.987 121.557L751.845 129.733L680.013 129.087Z" fill="#26FF59"/>
<path d="M606.072 204.603L584.988 151.893L574.446 125.537L568.599 112.183L570.904 106.804L573.977 99.182H583.912H603.92L629.738 185.886H614.032L640.065 99.182H680.082L636.838 204.603H606.072ZM581.115 248.923L612.311 180.292L636.838 204.603L618.765 248.923H581.115Z" fill="#26FF59"/>
<path d="M407.731 204.388L370.357 122.94H411.081L432.258 169.319H415.692L439.511 51.85H480.881L515.304 169.319H498.953L544.01 16.9043H585.503L523.049 204.388H492.068L457.645 87.1339H473.135L438.927 204.388H407.731Z" fill="#26FF59"/>
</svg>
