<svg width="189" height="150" viewBox="0 0 189 150" fill="none" xmlns="http://www.w3.org/2000/svg">
<path d="M16.1775 55.2671C24.7448 51.2743 34.9269 54.983 38.9199 63.5502L64.789 119.054C68.782 127.621 65.0742 137.804 56.5071 141.797C47.9397 145.79 37.7568 142.082 33.7638 133.514L7.89469 78.0104C3.90162 69.443 7.61005 59.2601 16.1775 55.2671Z" fill="white" stroke="white"/>
<path d="M41.6237 141.736C33.1531 137.542 29.6865 127.275 33.8804 118.804L67.3065 51.2908C71.5005 42.8202 81.7668 39.3534 90.2375 43.5471C98.7083 47.741 102.176 58.0076 97.9822 66.4785L64.556 133.992C60.3621 142.463 50.0946 145.93 41.6237 141.736Z" fill="white" stroke="white"/>
<path d="M75.1411 43.4217C66.6705 47.6158 63.2038 57.8828 67.3977 66.3535L99.6392 131.474C103.833 139.945 114.1 143.412 122.571 139.219C131.042 135.025 134.509 124.757 130.315 116.287L98.0734 51.1659C93.8794 42.695 83.6119 39.2277 75.1411 43.4217Z" fill="white" stroke="white"/>
<path d="M172.485 8.26397C180.956 12.4581 184.423 22.7251 180.229 31.1958L130.543 131.551C126.349 140.021 116.082 143.488 107.612 139.295C99.1408 135.101 95.6733 124.834 99.8669 116.363L149.553 16.0082L149.755 15.6143C154.068 7.43052 164.147 4.13557 172.485 8.26397Z" fill="white" stroke="white"/>
</svg>
