<svg width="224" height="224" viewBox="0 0 224 224" fill="none" xmlns="http://www.w3.org/2000/svg">
<rect width="224" height="224" rx="112" fill="white"/>
<path d="M46.6105 96.4569C53.7605 93.1244 62.2589 96.2188 65.5914 103.369L87.3029 149.952C90.6351 157.102 87.5397 165.6 80.3898 168.932C73.2398 172.265 64.7423 169.17 61.4098 162.02L39.6983 115.437C36.366 108.287 39.4607 99.7894 46.6105 96.4569Z" fill="#26FF59" stroke="#26FF59"/>
<path d="M67.9696 168.882C60.9002 165.382 58.006 156.814 61.5059 149.744L89.5596 93.082C93.0598 86.0126 101.629 83.1195 108.698 86.6197C115.767 90.1198 118.661 98.688 115.161 105.757L87.1073 162.419C83.6071 169.489 75.039 172.382 67.9696 168.882Z" fill="#26FF59" stroke="#26FF59"/>
<path d="M96.0995 86.5137C89.03 90.0139 86.1358 98.5824 89.6358 105.652L116.695 160.306C120.196 167.376 128.765 170.269 135.834 166.769C142.903 163.269 145.797 154.7 142.297 147.631L115.237 92.9765L115.069 92.6488C111.47 85.8186 103.059 83.0684 96.0995 86.5137Z" fill="#26FF59" stroke="#26FF59"/>
<path d="M177.724 57.0074C184.794 60.5075 187.688 69.0761 184.188 76.1455L142.488 160.37C138.988 167.44 130.419 170.333 123.349 166.833C116.28 163.332 113.387 154.764 116.887 147.695L158.587 63.4702C162.087 56.4009 170.655 53.5075 177.724 57.0074Z" fill="#26FF59" stroke="#26FF59"/>
</svg>
