<svg width="224" height="224" viewBox="0 0 224 224" fill="none" xmlns="http://www.w3.org/2000/svg">
<rect width="224" height="224" rx="112" fill="#26FF59"/>
<path d="M46.6105 95.4569C53.7605 92.1244 62.2589 95.2188 65.5914 102.369L87.3029 148.952C90.6351 156.102 87.5397 164.6 80.3898 167.932C73.2398 171.265 64.7423 168.17 61.4098 161.02L39.6983 114.437C36.366 107.287 39.4607 98.7894 46.6105 95.4569Z" fill="white" stroke="white"/>
<path d="M67.9696 167.882C60.9002 164.382 58.006 155.814 61.5059 148.744L89.5596 92.082C93.0598 85.0126 101.629 82.1195 108.698 85.6197C115.767 89.1198 118.661 97.688 115.161 104.757L87.1073 161.419C83.6071 168.489 75.039 171.382 67.9696 167.882Z" fill="white" stroke="white"/>
<path d="M96.0995 85.5137C89.03 89.0139 86.1358 97.5824 89.6358 104.652L116.695 159.306C120.196 166.376 128.765 169.269 135.834 165.769C142.903 162.269 145.797 153.7 142.297 146.631L115.237 91.9765L115.069 91.6488C111.47 84.8186 103.059 82.0684 96.0995 85.5137Z" fill="white" stroke="white"/>
<path d="M177.724 56.0074C184.794 59.5075 187.688 68.0761 184.188 75.1455L142.488 159.37C138.988 166.44 130.419 169.333 123.349 165.833C116.28 162.332 113.387 153.764 116.887 146.695L158.587 62.4702C162.087 55.4009 170.655 52.5075 177.724 56.0074Z" fill="white" stroke="white"/>
</svg>
