<svg xmlns="http://www.w3.org/2000/svg" xmlns:xlink="http://www.w3.org/1999/xlink" width="3000" zoomAndPan="magnify" viewBox="0 0 2250 2250.000011" height="3000" preserveAspectRatio="xMidYMid meet" version="1.0"><defs><clipPath id="ae6d66bc31"><path d="M 0.5 0 L 2249.5 0 L 2249.5 2249 L 0.5 2249 Z M 0.5 0 " clip-rule="nonzero"/></clipPath></defs><g clip-path="url(#ae6d66bc31)"><path fill="#26ff59" d="M 2249.4375 1124.5 C 2249.4375 1142.902344 2248.988281 1161.292969 2248.085938 1179.675781 C 2247.179688 1198.054688 2245.828125 1216.402344 2244.023438 1234.714844 C 2242.21875 1253.027344 2239.96875 1271.285156 2237.269531 1289.488281 C 2234.566406 1307.691406 2231.421875 1325.820312 2227.832031 1343.867188 C 2224.242188 1361.917969 2220.210938 1379.867188 2215.742188 1397.714844 C 2211.269531 1415.566406 2206.363281 1433.296875 2201.019531 1450.90625 C 2195.679688 1468.515625 2189.90625 1485.984375 2183.707031 1503.3125 C 2177.507812 1520.640625 2170.886719 1537.804688 2163.847656 1554.804688 C 2156.804688 1571.804688 2149.347656 1588.625 2141.480469 1605.257812 C 2133.613281 1621.894531 2125.339844 1638.328125 2116.667969 1654.558594 C 2107.992188 1670.785156 2098.921875 1686.792969 2089.464844 1702.578125 C 2080.003906 1718.363281 2070.160156 1733.902344 2059.9375 1749.203125 C 2049.710938 1764.507812 2039.121094 1779.546875 2028.15625 1794.328125 C 2017.195312 1809.109375 2005.878906 1823.613281 1994.203125 1837.835938 C 1982.527344 1852.0625 1970.511719 1865.992188 1958.152344 1879.628906 C 1945.796875 1893.261719 1933.109375 1906.585938 1920.097656 1919.597656 C 1907.085938 1932.609375 1893.761719 1945.296875 1880.125 1957.65625 C 1866.492188 1970.011719 1852.5625 1982.027344 1838.335938 1993.703125 C 1824.109375 2005.378906 1809.609375 2016.695312 1794.828125 2027.65625 C 1780.046875 2038.621094 1765.003906 2049.214844 1749.703125 2059.4375 C 1734.402344 2069.660156 1718.859375 2079.503906 1703.078125 2088.964844 C 1687.292969 2098.425781 1671.285156 2107.492188 1655.058594 2116.167969 C 1638.828125 2124.839844 1622.394531 2133.113281 1605.757812 2140.980469 C 1589.125 2148.847656 1572.304688 2156.304688 1555.304688 2163.347656 C 1538.300781 2170.386719 1521.136719 2177.007812 1503.8125 2183.207031 C 1486.484375 2189.410156 1469.015625 2195.179688 1451.40625 2200.519531 C 1433.796875 2205.863281 1416.066406 2210.769531 1398.214844 2215.242188 C 1380.367188 2219.710938 1362.414062 2223.742188 1344.367188 2227.332031 C 1326.316406 2230.921875 1308.191406 2234.070312 1289.988281 2236.769531 C 1271.785156 2239.46875 1253.527344 2241.722656 1235.214844 2243.523438 C 1216.902344 2245.328125 1198.554688 2246.683594 1180.171875 2247.585938 C 1161.792969 2248.488281 1143.402344 2248.9375 1125 2248.9375 C 1106.597656 2248.9375 1088.207031 2248.488281 1069.828125 2247.585938 C 1051.445312 2246.683594 1033.097656 2245.328125 1014.785156 2243.523438 C 996.472656 2241.722656 978.214844 2239.46875 960.011719 2236.769531 C 941.808594 2234.070312 923.679688 2230.921875 905.632812 2227.332031 C 887.585938 2223.742188 869.632812 2219.710938 851.785156 2215.242188 C 833.933594 2210.769531 816.203125 2205.863281 798.59375 2200.519531 C 780.984375 2195.179688 763.515625 2189.410156 746.1875 2183.207031 C 728.859375 2177.007812 711.695312 2170.386719 694.695312 2163.347656 C 677.695312 2156.304688 660.875 2148.847656 644.242188 2140.980469 C 627.605469 2133.113281 611.171875 2124.839844 594.941406 2116.167969 C 578.714844 2107.492188 562.707031 2098.425781 546.921875 2088.964844 C 531.136719 2079.503906 515.597656 2069.660156 500.296875 2059.4375 C 484.996094 2049.214844 469.953125 2038.621094 455.171875 2027.65625 C 440.390625 2016.695312 425.886719 2005.378906 411.664062 1993.703125 C 397.4375 1982.027344 383.507812 1970.011719 369.871094 1957.65625 C 356.238281 1945.296875 342.914062 1932.609375 329.902344 1919.597656 C 316.890625 1906.585938 304.203125 1893.261719 291.84375 1879.628906 C 279.488281 1865.992188 267.472656 1852.0625 255.796875 1837.835938 C 244.121094 1823.613281 232.804688 1809.109375 221.84375 1794.328125 C 210.878906 1779.546875 200.285156 1764.507812 190.0625 1749.203125 C 179.839844 1733.902344 169.996094 1718.363281 160.535156 1702.578125 C 151.074219 1686.792969 142.007812 1670.785156 133.332031 1654.558594 C 124.660156 1638.328125 116.386719 1621.894531 108.519531 1605.261719 C 100.652344 1588.625 93.195312 1571.804688 86.152344 1554.804688 C 79.113281 1537.804688 72.492188 1520.640625 66.292969 1503.3125 C 60.089844 1485.984375 54.320312 1468.515625 48.980469 1450.90625 C 43.636719 1433.296875 38.730469 1415.566406 34.257812 1397.714844 C 29.789062 1379.867188 25.757812 1361.917969 22.167969 1343.867188 C 18.578125 1325.820312 15.429688 1307.691406 12.730469 1289.488281 C 10.03125 1271.285156 7.777344 1253.027344 5.976562 1234.714844 C 4.171875 1216.402344 2.820312 1198.054688 1.914062 1179.675781 C 1.011719 1161.292969 0.5625 1142.902344 0.5625 1124.5 C 0.5625 1106.097656 1.011719 1087.707031 1.914062 1069.328125 C 2.820312 1050.945312 4.171875 1032.601562 5.976562 1014.285156 C 7.777344 995.972656 10.03125 977.714844 12.730469 959.511719 C 15.429688 941.308594 18.578125 923.183594 22.167969 905.132812 C 25.757812 887.085938 29.789062 869.132812 34.257812 851.285156 C 38.730469 833.433594 43.636719 815.703125 48.980469 798.09375 C 54.320312 780.484375 60.089844 763.015625 66.292969 745.6875 C 72.492188 728.363281 79.113281 711.199219 86.152344 694.195312 C 93.195312 677.195312 100.652344 660.375 108.519531 643.742188 C 116.386719 627.105469 124.660156 610.671875 133.332031 594.445312 C 142.007812 578.214844 151.074219 562.207031 160.535156 546.421875 C 169.996094 530.640625 179.839844 515.097656 190.0625 499.796875 C 200.285156 484.496094 210.878906 469.453125 221.84375 454.671875 C 232.804688 439.890625 244.121094 425.390625 255.796875 411.164062 C 267.472656 396.9375 279.488281 383.007812 291.84375 369.375 C 304.203125 355.738281 316.890625 342.414062 329.902344 329.402344 C 342.914062 316.390625 356.238281 303.703125 369.871094 291.347656 C 383.507812 278.988281 397.4375 266.972656 411.664062 255.296875 C 425.886719 243.621094 440.390625 232.304688 455.171875 221.34375 C 469.953125 210.378906 484.992188 199.789062 500.296875 189.5625 C 515.597656 179.339844 531.136719 169.496094 546.921875 160.035156 C 562.707031 150.574219 578.714844 141.507812 594.941406 132.832031 C 611.171875 124.160156 627.605469 115.886719 644.242188 108.019531 C 660.875 100.152344 677.695312 92.695312 694.695312 85.652344 C 711.695312 78.613281 728.859375 71.992188 746.1875 65.792969 C 763.515625 59.59375 780.984375 53.820312 798.59375 48.480469 C 816.203125 43.136719 833.933594 38.230469 851.785156 33.757812 C 869.632812 29.289062 887.585938 25.257812 905.632812 21.667969 C 923.679688 18.078125 941.808594 14.933594 960.011719 12.230469 C 978.214844 9.53125 996.472656 7.28125 1014.785156 5.476562 C 1033.097656 3.671875 1051.445312 2.320312 1069.828125 1.414062 C 1088.207031 0.511719 1106.597656 0.0625 1125 0.0625 C 1143.402344 0.0625 1161.792969 0.511719 1180.171875 1.414062 C 1198.554688 2.320312 1216.902344 3.671875 1235.214844 5.476562 C 1253.527344 7.28125 1271.785156 9.53125 1289.988281 12.230469 C 1308.191406 14.933594 1326.316406 18.078125 1344.367188 21.667969 C 1362.414062 25.257812 1380.367188 29.289062 1398.214844 33.757812 C 1416.066406 38.230469 1433.796875 43.136719 1451.40625 48.480469 C 1469.015625 53.820312 1486.484375 59.59375 1503.8125 65.792969 C 1521.136719 71.992188 1538.300781 78.613281 1555.304688 85.652344 C 1572.304688 92.695312 1589.125 100.152344 1605.757812 108.019531 C 1622.394531 115.886719 1638.828125 124.160156 1655.058594 132.832031 C 1671.285156 141.507812 1687.292969 150.578125 1703.078125 160.035156 C 1718.859375 169.496094 1734.402344 179.339844 1749.703125 189.5625 C 1765.003906 199.789062 1780.046875 210.378906 1794.828125 221.34375 C 1809.609375 232.304688 1824.113281 243.621094 1838.335938 255.296875 C 1852.5625 266.972656 1866.492188 278.988281 1880.128906 291.347656 C 1893.761719 303.703125 1907.085938 316.390625 1920.097656 329.402344 C 1933.109375 342.414062 1945.796875 355.738281 1958.152344 369.375 C 1970.511719 383.007812 1982.527344 396.9375 1994.203125 411.164062 C 2005.878906 425.390625 2017.195312 439.890625 2028.15625 454.671875 C 2039.121094 469.453125 2049.710938 484.496094 2059.9375 499.796875 C 2070.160156 515.097656 2080.003906 530.640625 2089.464844 546.421875 C 2098.921875 562.207031 2107.992188 578.214844 2116.667969 594.441406 C 2125.339844 610.671875 2133.613281 627.105469 2141.480469 643.742188 C 2149.347656 660.375 2156.804688 677.195312 2163.847656 694.195312 C 2170.886719 711.199219 2177.507812 728.363281 2183.707031 745.6875 C 2189.90625 763.015625 2195.679688 780.484375 2201.019531 798.09375 C 2206.363281 815.703125 2211.269531 833.433594 2215.742188 851.285156 C 2220.210938 869.132812 2224.242188 887.085938 2227.832031 905.132812 C 2231.421875 923.183594 2234.566406 941.308594 2237.269531 959.511719 C 2239.96875 977.714844 2242.21875 995.972656 2244.023438 1014.285156 C 2245.828125 1032.601562 2247.179688 1050.945312 2248.085938 1069.328125 C 2248.988281 1087.707031 2249.4375 1106.097656 2249.4375 1124.5 Z M 2249.4375 1124.5 " fill-opacity="1" fill-rule="nonzero"/></g><path fill="#ffffff" d="M 956.328125 1565.3125 C 952.628906 1565.3125 948.90625 1565.140625 945.171875 1564.785156 C 912.714844 1561.699219 882.96875 1545.296875 863.035156 1519.480469 L 585.269531 1159.769531 C 545.476562 1108.234375 554.992188 1034.210938 606.523438 994.421875 C 658.054688 954.640625 732.070312 964.148438 771.863281 1015.675781 L 972.652344 1275.703125 L 1493.371094 713.230469 C 1542.15625 670.121094 1616.644531 674.734375 1659.753906 723.507812 C 1702.871094 772.28125 1698.261719 846.777344 1649.484375 889.890625 L 1034.386719 1535.769531 C 1012.75 1554.890625 984.953125 1565.3125 956.328125 1565.3125 Z M 956.328125 1565.3125 " fill-opacity="1" fill-rule="nonzero"/></svg>